<?xml version="1.0" encoding="utf-8"?>
<!-- Generator: Adobe Illustrator 23.0.0, SVG Export Plug-In . SVG Version: 6.00 Build 0)  -->
<svg version="1.1" id="Capa_1" xmlns="http://www.w3.org/2000/svg" xmlns:xlink="http://www.w3.org/1999/xlink" x="0px" y="0px"
	 viewBox="0 0 300 110" style="enable-background:new 0 0 300 110;" xml:space="preserve">
<style type="text/css">
	.st0{fill:#FFFFFF;}
</style>
<g>
	<g>
		<g>
			<g>
				<path class="st0" d="M54.5,6.6C27.8,6.6,6.2,28.3,6.2,54.9c0,26.7,21.6,48.3,48.3,48.3c26.7,0,48.3-21.6,48.3-48.3
					C102.8,28.3,81.1,6.6,54.5,6.6z M34.6,71H15.4l6.1-32h6.8l-4.9,26h12.3L34.6,71z M58,71l-0.7-8.3h-9.2L44.3,71H37l15.6-32h8.8
					l3.7,32H58z M90.5,51.7l-1.1,5.7H78l-1.5,7.7h12.8L88.2,71H68.6l6.1-32h18.9l-1.1,5.8H80.4l-1.3,6.8H90.5z"/>
			</g>
			<g>
				<path class="st0" d="M55.9,44.3h-0.1c-0.8,1.9-1.7,4.4-2.6,6.3l-3.2,6.9H57l-0.6-6.9C56.3,48.8,56.1,46.3,55.9,44.3z"/>
			</g>
		</g>
		<g>
			<g>
				<path class="st0" d="M87.1,98.7L86,97.7C65.2,113,35.8,111.3,17,92.5C-1.7,73.7-3.5,44.3,11.9,23.5l-1.1-1.1
					C-5.1,43.8-3.4,74.2,16,93.6C35.4,112.9,65.7,114.7,87.1,98.7z"/>
				<path class="st0" d="M23.1,12.3C43.8-3,73.2-1.3,92,17.5c18.8,18.8,20.5,48.2,5.2,68.9l1.1,1.1c15.9-21.3,14.2-51.7-5.2-71.1
					C73.7-2.9,43.3-4.7,22,11.3L23.1,12.3z"/>
			</g>
		</g>
	</g>
	<path class="st0" d="M139.2,50.4h8.9v2.2h-11.6V32h11.1v2.2h-8.5v6.5h8V43h-8V50.4z M164.1,48.8c0,1.3,0,2.8,0.1,3.8h-2.4l-0.1-2.6
		h-0.1c-0.8,1.7-2.6,2.9-5,2.9c-3.6,0-6.3-3-6.3-7.5c0-4.9,3-7.9,6.6-7.9c2.3,0,3.8,1.1,4.5,2.3h0.1v-8.8h2.7V48.8z M161.5,43.9
		c0-0.3,0-0.8-0.1-1.1c-0.4-1.7-1.9-3.1-3.9-3.1c-2.8,0-4.4,2.4-4.4,5.7c0,3,1.5,5.5,4.4,5.5c1.8,0,3.5-1.2,3.9-3.2
		c0.1-0.4,0.1-0.7,0.1-1.2V43.9z M181,37.9h-2.7v9.1c0,0.5-0.1,1-0.2,1.4c-0.5,1.2-1.7,2.4-3.5,2.4c-2.4,0-3.3-1.9-3.3-4.7v-8.2
		h-2.7v8.7c0,5.2,2.8,6.5,5.1,6.5c2.6,0,4.2-1.6,4.9-2.8h0.1l0.2,2.4h2.4c-0.1-1.2-0.1-2.5-0.1-4V37.9z M192.3,39.7
		c1.5,0,2.5,0.3,3.1,0.7l0.6-2.1c-0.7-0.4-2.1-0.8-3.7-0.8c-4.8,0-7.9,3.3-7.9,7.9c0,4.5,2.9,7.6,7.4,7.6c2,0,3.5-0.5,4.2-0.9
		l-0.5-2c-0.8,0.3-1.8,0.7-3.3,0.7c-2.9,0-5.1-2.1-5.1-5.5C187.1,42.2,188.9,39.7,192.3,39.7z M209.5,49.1c0,1.3,0.1,2.5,0.2,3.5
		h-2.4l-0.2-1.9H207c-0.8,1.2-2.4,2.2-4.5,2.2c-3,0-4.5-2.1-4.5-4.2c0-3.6,3.2-5.5,8.9-5.5v-0.3c0-1.2-0.3-3.4-3.4-3.4
		c-1.4,0-2.8,0.4-3.9,1.1l-0.6-1.8c1.2-0.8,3-1.3,4.9-1.3c4.5,0,5.6,3.1,5.6,6.1V49.1z M206.9,45.1c-2.9-0.1-6.3,0.5-6.3,3.3
		c0,1.7,1.2,2.6,2.5,2.6c1.9,0,3.1-1.2,3.6-2.5c0.1-0.3,0.2-0.6,0.2-0.9V45.1z M220.8,39.7c1.5,0,2.5,0.3,3.1,0.7l0.6-2.1
		c-0.7-0.4-2.1-0.8-3.7-0.8c-4.8,0-7.9,3.3-7.9,7.9c0,4.5,2.9,7.6,7.4,7.6c2,0,3.5-0.5,4.2-0.9l-0.5-2c-0.8,0.3-1.8,0.7-3.3,0.7
		c-2.9,0-5.1-2.1-5.1-5.5C215.5,42.2,217.4,39.7,220.8,39.7z M228.9,32c-1,0-1.7,0.7-1.7,1.7c0,0.9,0.7,1.7,1.6,1.7
		c1.1,0,1.7-0.7,1.7-1.7C230.6,32.7,229.9,32,228.9,32z M227.6,52.6h2.7V37.9h-2.7V52.6z M244.9,31.5h-3l-2.7,4.4h1.9L244.9,31.5z
		 M248.1,45.1c0,5.5-3.8,7.9-7.4,7.9c-4,0-7.1-2.9-7.1-7.6c0-5,3.2-7.9,7.3-7.9C245.2,37.5,248.1,40.6,248.1,45.1z M245.4,45.2
		c0-2.5-1.3-5.7-4.4-5.7c-3.2,0-4.6,2.9-4.6,5.7c0,3.2,1.9,5.7,4.5,5.7C243.4,51,245.4,48.5,245.4,45.2z M258.9,37.5
		c-2.4,0-4.2,1.4-4.9,2.8h-0.1l-0.2-2.4h-2.4c0.1,1.2,0.1,2.5,0.1,4v10.8h2.7v-8.9c0-0.5,0.1-0.9,0.2-1.3c0.5-1.5,1.8-2.8,3.6-2.8
		c2.5,0,3.4,2,3.4,4.4v8.5h2.7v-8.8C264.1,38.7,260.9,37.5,258.9,37.5z"/>
	<path class="st0" d="M136.5,58h2.7v20.6h-2.7V58z M151.4,63.5c-2.4,0-4.2,1.4-4.9,2.8h-0.1l-0.2-2.4h-2.4c0.1,1.2,0.1,2.5,0.1,4
		v10.8h2.7v-8.9c0-0.5,0.1-0.9,0.2-1.3c0.5-1.5,1.8-2.8,3.6-2.8c2.5,0,3.4,2,3.4,4.4v8.5h2.7v-8.8C156.7,64.7,153.5,63.5,151.4,63.5
		z M164.1,59.6l-2.6,0.7v3.5h-2.3v2h2.3v8.1c0,1.7,0.3,3.1,1,3.9c0.6,0.7,1.7,1.1,2.9,1.1c1,0,1.9-0.2,2.4-0.4l-0.1-2
		c-0.3,0.1-0.9,0.2-1.6,0.2c-1.5,0-2-1-2-2.9v-8h3.9v-2h-3.9V59.6z M182.8,70.5c0,0.6-0.1,1-0.1,1.3h-10.4c0.1,3.6,2.4,5.1,5.1,5.1
		c1.9,0,3.1-0.3,4.1-0.8L182,78c-0.9,0.4-2.6,0.9-4.9,0.9c-4.6,0-7.3-3-7.3-7.5c0-4.5,2.6-8,6.9-8C181.5,63.5,182.8,67.7,182.8,70.5
		z M180.2,69.8c0-1.7-0.7-4.4-3.7-4.4c-2.7,0-3.9,2.5-4.1,4.4H180.2z M188.6,66.7h-0.1l-0.1-2.9H186c0.1,1.4,0.1,2.9,0.1,4.6v10.2
		h2.7v-7.9c0-0.5,0.1-0.9,0.1-1.3c0.4-2,1.7-3.5,3.6-3.5c0.4,0,0.6,0,0.9,0.1v-2.5c-0.2-0.1-0.5-0.1-0.8-0.1
		C190.9,63.5,189.3,64.7,188.6,66.7z M203.6,63.5c-2.4,0-4.2,1.4-4.9,2.8h-0.1l-0.2-2.4h-2.4c0.1,1.2,0.1,2.5,0.1,4v10.8h2.7v-8.9
		c0-0.5,0.1-0.9,0.2-1.3c0.5-1.5,1.8-2.8,3.6-2.8c2.5,0,3.4,2,3.4,4.4v8.5h2.7v-8.8C208.9,64.7,205.7,63.5,203.6,63.5z M223.6,75.1
		c0,1.3,0.1,2.5,0.2,3.5h-2.4l-0.2-1.9h-0.1c-0.8,1.2-2.4,2.2-4.5,2.2c-3,0-4.5-2.1-4.5-4.2c0-3.6,3.2-5.5,8.9-5.5v-0.3
		c0-1.2-0.3-3.4-3.4-3.4c-1.4,0-2.8,0.4-3.9,1.1l-0.6-1.8c1.2-0.8,3-1.3,4.9-1.3c4.5,0,5.6,3.1,5.6,6.1V75.1z M221,71.1
		c-2.9-0.1-6.3,0.5-6.3,3.3c0,1.7,1.2,2.6,2.5,2.6c1.9,0,3.1-1.2,3.6-2.5c0.1-0.3,0.2-0.6,0.2-0.9V71.1z M234.9,65.7
		c1.5,0,2.5,0.3,3.1,0.7l0.6-2.1c-0.7-0.4-2.1-0.8-3.7-0.8c-4.8,0-7.9,3.3-7.9,7.9c0,4.5,2.9,7.5,7.4,7.5c2,0,3.5-0.5,4.2-0.9
		l-0.5-2c-0.8,0.3-1.8,0.7-3.3,0.7c-2.9,0-5.1-2.1-5.1-5.5C229.6,68.2,231.5,65.7,234.9,65.7z M243,58c-1,0-1.7,0.7-1.7,1.7
		c0,0.9,0.7,1.7,1.6,1.7c1.1,0,1.7-0.7,1.7-1.7C244.7,58.7,244,58,243,58z M241.7,78.6h2.7V63.8h-2.7V78.6z M262.2,71.1
		c0,5.5-3.8,7.9-7.4,7.9c-4,0-7.1-2.9-7.1-7.6c0-5,3.2-7.9,7.3-7.9C259.3,63.5,262.2,66.6,262.2,71.1z M259.5,71.2
		c0-2.5-1.3-5.7-4.4-5.7c-3.2,0-4.6,2.9-4.6,5.7c0,3.2,1.9,5.7,4.5,5.7C257.5,76.9,259.5,74.5,259.5,71.2z M273,63.5
		c-2.4,0-4.2,1.4-4.9,2.8H268l-0.2-2.4h-2.4c0.1,1.2,0.1,2.5,0.1,4v10.8h2.7v-8.9c0-0.5,0.1-0.9,0.2-1.3c0.5-1.5,1.8-2.8,3.6-2.8
		c2.5,0,3.4,2,3.4,4.4v8.5h2.7v-8.8C278.2,64.7,275,63.5,273,63.5z M293,75.1c0,1.3,0.1,2.5,0.2,3.5h-2.4l-0.2-1.9h-0.1
		c-0.8,1.2-2.4,2.2-4.5,2.2c-3,0-4.5-2.1-4.5-4.2c0-3.6,3.2-5.5,8.9-5.5v-0.3c0-1.2-0.3-3.4-3.4-3.4c-1.4,0-2.8,0.4-3.9,1.1
		l-0.6-1.8c1.2-0.8,3-1.3,4.9-1.3c4.5,0,5.6,3.1,5.6,6.1V75.1z M290.4,71.1c-2.9-0.1-6.3,0.5-6.3,3.3c0,1.7,1.2,2.6,2.5,2.6
		c1.9,0,3.1-1.2,3.6-2.5c0.1-0.3,0.2-0.6,0.2-0.9V71.1z M297.3,56.9v21.7h2.7V56.9H297.3z"/>
</g>
</svg>
